/* XPM */
static char * close_pressed_xpm[] = {
"18 18 19 1",
" 	c None",
".	c #EFF0F1",
"+	c #E0DFDF",
"@	c #D7A4A4",
"#	c #CC5A5A",
"$	c #C42525",
"%	c #C10E0E",
"&	c #DBBFBF",
"*	c #C73838",
"=	c #BF0303",
"-	c #D8ABAB",
";	c #C11111",
">	c #C83F3F",
",	c #DED6D6",
"'	c #C94747",
")	c #CC5B5B",
"!	c #DED9D9",
"~	c #DFD9D9",
"{	c #C11212",
"....+@#$%%$#@+....",
"...&*========*&...",
"..-;==========;-..",
".&;============;&.",
"+*==*>======>*==*+",
"@===>,'====',>===@",
"#====','==','====)",
"$=====','','=====$",
"%======'!~'======%",
"%======'~!'======%",
"$=====','','=====$",
"#====','==','====)",
"@===>,'====',>===@",
"+*==*>======>*==*+",
".&;============{&.",
"..-;=========={-..",
"...&*========*&...",
"....+@)$%%$)@+...."};
