/* XPM */
static char * close_inactive_xpm[] = {
"18 18 17 1",
" 	c None",
".	c #EFF0F1",
"+	c #CAC8C6",
"@	c #AFAAA6",
"#	c #9B948E",
"$	c #938C85",
"%	c #D4D3D2",
"&	c #A39D97",
"*	c #8F8780",
"=	c #CCCAC9",
"-	c #948D86",
";	c #A59F9A",
">	c #DCDCDC",
",	c #A8A29D",
"'	c #AFABA6",
")	c #DDDDDD",
"!	c #A29C97",
".....+@#$$#@+.....",
"...%&********&%...",
"..=-**********-=..",
".%-************-%.",
".&**&;******;&**&.",
"+***;>,****,>;***+",
"@****,>,**,>,****'",
"#*****,>,,>,*****#",
"$******,)),******$",
"$******,)),******$",
"#*****,>,,>,*****#",
"@****,>,**,>,****'",
"+***;>,****,>;***+",
".&**&;******;&**!.",
".%-************-%.",
"..=-**********-=..",
"...%&********&%...",
".....+'#$$#'+....."};
