/* XPM */
static char * maximize_toggled_inactive_xpm[] = {
"18 18 7 1",
" 	c None",
".	c #EFF0F1",
"+	c #CAC8C6",
"@	c #C1BDBB",
"#	c #C7C5C3",
"$	c #8F8780",
"%	c #938B84",
"..................",
"..................",
"..................",
"........+@........",
".......#$$#.......",
"......#%##%#......",
".....#%#..#%#.....",
"....#%#....#%#....",
"...+$#......#$+...",
"...+$#......#$+...",
"....#%#....#%#....",
".....#%#..#%#.....",
"......#%##%#......",
".......#$$#.......",
"........++........",
"..................",
"..................",
".................."};
