/* XPM */
static char * maximize_pressed_xpm[] = {
"18 18 15 1",
" 	c None",
".	c #EFF0F1",
"+	c #D3D3D3",
"@	c #C5C4C4",
"#	c #BAB9B8",
"$	c #B6B5B4",
"%	c #DADAD9",
"&	c #BEBDBD",
"*	c #B3B2B1",
"=	c #D5D5D4",
"-	c #C1C0BF",
";	c #DEDEDE",
">	c #C0BFBE",
",	c #BFBEBD",
"'	c #BDBDBC",
".....+@#$$#@+.....",
"...%&********&%...",
"..=$**********$=..",
".%$************$%.",
".&**************&.",
"+*******--*******+",
"@******-..-******@",
"#*****-;--;-*****#",
"$****-;-**-;-****$",
"$***-;-****-;-***$",
"#**>;-******-;,**#",
"@**&,********>&**@",
"+****************+",
".&**************'.",
".%$************$%.",
"..=$**********$=..",
"...%&********&%...",
".....+@#$$#@+....."};
