/* XPM */
static char * maximize_inactive_xpm[] = {
"18 18 7 1",
" 	c None",
".	c #EFF0F1",
"+	c #C7C5C3",
"@	c #8F8780",
"#	c #938B84",
"$	c #CAC8C6",
"%	c #CCCAC9",
"..................",
"..................",
"..................",
"..................",
"..................",
"........++........",
".......+@@+.......",
"......+#++#+......",
".....+#+..+#+.....",
"....+#+....+#+....",
"...$#+......+#$...",
"...%$........$%...",
"..................",
"..................",
"..................",
"..................",
"..................",
".................."};
