/* XPM */
static char * shade_toggled_inactive_xpm[] = {
"18 18 9 1",
" 	c None",
".	c #EFF0F1",
"+	c #CDCBC9",
"@	c #B4AFAB",
"#	c #CCCAC9",
"$	c #CAC8C6",
"%	c #938B84",
"&	c #C7C5C3",
"*	c #8F8780",
"..................",
"..................",
"..................",
"..................",
"...+@@@@@@@@@@+...",
"...+@@@@@@@@@@+...",
"..................",
"...#$........$#...",
"...$%&......&%$...",
"....&%&....&%&....",
".....&%&..&%&.....",
"......&%&&%&......",
".......&**&.......",
"........&&........",
"..................",
"..................",
"..................",
".................."};
