/* XPM */
static char * shade_toggled_active_xpm[] = {
"18 18 10 1",
" 	c None",
".	c #EFF0F1",
"+	c #BDBCBB",
"@	c #8E8C8A",
"#	c #BCBBBA",
"$	c #B7B6B5",
"%	c #B8B6B5",
"&	c #524E4A",
"*	c #B2B1B0",
"=	c #4B4743",
"..................",
"..................",
"..................",
"..................",
"...+@@@@@@@@@@+...",
"...+@@@@@@@@@@+...",
"..................",
"...#$........%#...",
"...%&*......*&$...",
"....*&*....*&*....",
".....*&*..*&*.....",
"......*&**&*......",
".......*==*.......",
"........**........",
"..................",
"..................",
"..................",
".................."};
