/* XPM */
static char * stick_toggled_prelight_xpm[] = {
"18 18 21 1",
" 	c None",
".	c #EFF0F1",
"+	c #DFDFDF",
"@	c #B7B6B5",
"#	c #868381",
"$	c #625E5B",
"%	c #524F4B",
"&	c #CACAC9",
"*	c #6F6C69",
"=	c #4B4743",
"-	c #BCBBBA",
";	c #54514D",
">	c #4C4844",
",	c #878582",
"'	c #C0BFBE",
")	c #D9D8D8",
"!	c #5B5754",
"~	c #BBBAB9",
"{	c #868481",
"]	c #6A6764",
"^	c #55514E",
"....+@#$%%$#@+....",
"...&*========*&...",
"..-;==========;-..",
".&;==>,'))',>==;&.",
"+*==!~......~!==*+",
"@==>-........~>==@",
"#==,..........,=={",
"$=='..........'==$",
"%==)....]]....)==%",
"%==)....]]....)==%",
"$=='..........'==$",
"#==,..........,=={",
"@==>~........~>==@",
"+*==!~......~!==*+",
".&;==>,'))',>==^&.",
"..-;==========^-..",
"...&*========*&...",
"....+@{$%%${@+...."};
