/* XPM */
static char * stick_active_xpm[] = {
"18 18 10 1",
" 	c None",
".	c #EFF0F1",
"+	c #969492",
"@	c #4B4743",
"#	c #DDDDDD",
"$	c #575350",
"%	c #B2B1B0",
"&	c #504C48",
"*	c #4D4945",
"=	c #524E4A",
"..................",
"..................",
"..................",
"...........++.....",
"..........+@@+....",
".........+@@@@+...",
".....#..+@@@@@+...",
"....#$%+@@@@@+....",
".....%&@@@@@+.....",
"......%*@@@+......",
"......%&*@+.......",
".....%=%%&%.......",
"....%=%..%$#......",
"...#$%....#.......",
"....#.............",
"..................",
"..................",
".................."};
