/* XPM */
static char * stick_inactive_xpm[] = {
"18 18 11 1",
" 	c None",
".	c #EFF0F1",
"+	c #B8B4B0",
"@	c #8F8780",
"#	c #DEDEDE",
"$	c #968E88",
"%	c #C7C5C3",
"&	c #928A83",
"*	c #908982",
"=	c #928982",
"-	c #938B84",
"..................",
"..................",
"..................",
"...........++.....",
"..........+@@+....",
".........+@@@@+...",
".....#..+@@@@@+...",
"....#$%+@@@@@+....",
".....%&@@@@@+.....",
"......%*@@@+......",
"......%=*@+.......",
".....%-%%&%.......",
"....%-%..%$#......",
"...#$%....#.......",
"....#.............",
"..................",
"..................",
".................."};
