/* XPM */
static char * stick_toggled_pressed_xpm[] = {
"18 18 18 1",
" 	c None",
".	c #EFF0F1",
"+	c #D3D3D3",
"@	c #C5C4C4",
"#	c #BAB9B8",
"$	c #B6B5B4",
"%	c #DADAD9",
"&	c #BEBDBD",
"*	c #B3B2B1",
"=	c #D5D5D4",
"-	c #B4B3B2",
";	c #C5C5C4",
">	c #D7D6D6",
",	c #DDDDDD",
"'	c #B8B7B6",
")	c #D5D5D5",
"!	c #BCBBBB",
"~	c #BDBDBC",
".....+@#$$#@+.....",
"...%&********&%...",
"..=$**********$=..",
".%$**-;>,,>;-**$%.",
".&**'=......='**&.",
"+**-)........=-**+",
"@**;..........;**@",
"#**>..........>**#",
"$**,....!!....,**$",
"$**,....!!....,**$",
"#**>..........>**#",
"@**;..........;**@",
"+**-=........=-**+",
".&**'=......='**~.",
".%$**-;>,,>;-**$%.",
"..=$**********$=..",
"...%&********&%...",
".....+@#$$#@+....."};
